<svg width="27" height="16" viewBox="0 0 27 16" fill="none" xmlns="http://www.w3.org/2000/svg">
<path d="M0.415221 2.016C7.54992e-06 2.80587 7.62939e-06 3.83987 7.62939e-06 5.90773V10.0923C7.62939e-06 12.1601 7.54992e-06 13.1941 0.415221 13.984C0.780448 14.6787 1.36323 15.2436 2.08005 15.5976C2.89494 16 3.96171 16 6.09521 16H12.5291C14.6627 16 15.7295 16 16.5443 15.5976C17.2611 15.2436 17.8439 14.6787 18.2091 13.984C18.6244 13.1941 18.6244 12.1601 18.6244 10.0923V5.90773C18.6244 3.83987 18.6244 2.80587 18.2091 2.016C17.8439 1.32133 17.2611 0.7564 16.5443 0.4024C15.7295 -3.17891e-07 14.6627 0 12.5291 0H6.09521C3.96171 0 2.89494 -3.17891e-07 2.08005 0.4024C1.36323 0.7564 0.780448 1.32133 0.415221 2.016Z" fill="url(#paint0_linear_2_95)"/>
<path d="M20.0764 4.53373L24.2335 1.15627C25.1976 0.372935 26.6667 1.03734 26.6667 2.25667V13.7779C26.6667 14.9913 25.2099 15.6577 24.2433 14.8863L20.0877 11.5692C19.6972 11.2575 19.4709 10.7928 19.4709 10.3025V5.79133C19.4709 5.306 19.6925 4.84547 20.0764 4.53373Z" fill="url(#paint1_linear_2_95)"/>
<defs>
<linearGradient id="paint0_linear_2_95" x1="-16.0635" y1="8.5" x2="24.1202" y2="9.47617" gradientUnits="userSpaceOnUse">
<stop stop-color="#61F677"/>
<stop offset="1" stop-color="#10BC2B"/>
</linearGradient>
<linearGradient id="paint1_linear_2_95" x1="13.2646" y1="8.46722" x2="28.7975" y2="8.62922" gradientUnits="userSpaceOnUse">
<stop stop-color="#61F677"/>
<stop offset="1" stop-color="#10BC2B"/>
</linearGradient>
</defs>
</svg>
