<svg width="210" height="32" viewBox="0 0 210 32" fill="none" xmlns="http://www.w3.org/2000/svg">
<rect x="30" y="14" width="61" height="5" fill="url(#paint0_linear_2_415)"/>
<rect x="118" y="14" width="61" height="5" fill="url(#paint0_linear_2_415)"/>
<circle cx="16" cy="16" r="16" fill="url(#paint1_linear_2_415)"/>
<circle cx="105" cy="16" r="16" fill="url(#paint2_linear_2_415)"/>
<path d="M12.5 13.6V11L15.1 9H17.2V23H14.9V11.8L12.5 13.6Z" fill="white"/>
<path d="M99.6 23V20.8L104.38 17.42C105.42 16.6733 106.167 15.98 106.62 15.34C107.073 14.7 107.3 14.02 107.3 13.3C107.3 12.54 107.067 11.9333 106.6 11.48C106.133 11.0267 105.5 10.8 104.7 10.8C103.713 10.8 102.973 11.2 102.48 12C102.267 12.3467 102.107 12.7467 102 13.2H99.6C99.72 12.3467 99.98 11.58 100.38 10.9C101.327 9.36667 102.767 8.6 104.7 8.6C106.18 8.6 107.38 9.04 108.3 9.92C109.233 10.7867 109.7 11.88 109.7 13.2C109.7 14.3467 109.407 15.38 108.82 16.3C108.233 17.2067 107.293 18.1067 106 19L104 20.4L103.1 20.8V20.9L104.3 20.8H109.7V23H99.6Z" fill="white"/>
<path fill-rule="evenodd" clip-rule="evenodd" d="M210 16C210 24.8365 202.836 32 194 32C185.163 32 178 24.8365 178 16C178 7.16344 185.163 0 194 0C202.836 0 210 7.16344 210 16ZM194.573 11.8119C193.017 12.4592 189.907 13.7989 185.243 15.831C184.485 16.1323 184.088 16.427 184.052 16.715C183.991 17.2021 184.601 17.3938 185.431 17.6549C185.544 17.6904 185.661 17.7272 185.781 17.7661C186.598 18.0317 187.697 18.3424 188.268 18.3547C188.787 18.3659 189.365 18.1523 190.004 17.7138C194.362 14.772 196.611 13.2851 196.752 13.253C196.852 13.2304 196.99 13.2019 197.084 13.2851C197.177 13.3683 197.168 13.5258 197.158 13.568C197.098 13.8256 194.704 16.0509 193.465 17.2024C193.079 17.5614 192.805 17.816 192.749 17.8742C192.624 18.0045 192.496 18.1277 192.373 18.2461C191.614 18.9778 191.045 19.5264 192.405 20.4224C193.058 20.853 193.581 21.209 194.103 21.5642C194.672 21.9522 195.24 22.339 195.976 22.821C196.163 22.9437 196.342 23.0712 196.516 23.1954C197.179 23.668 197.774 24.0926 198.51 24.0248C198.938 23.9856 199.379 23.5835 199.604 22.3845C200.134 19.5509 201.176 13.4112 201.416 10.8813C201.437 10.6596 201.411 10.376 201.39 10.2514C201.368 10.1269 201.324 9.94947 201.162 9.81813C200.97 9.66258 200.674 9.62978 200.542 9.632C199.94 9.64272 199.017 9.96376 194.573 11.8119Z" fill="url(#paint0_linear_2_415)"/>
<defs>
<linearGradient id="paint0_linear_2_415" x1="-23.1977" y1="15.3571" x2="-2.7255" y2="65.0992" gradientUnits="userSpaceOnUse">
<stop stop-color="#61F677"/>
<stop offset="1" stop-color="#10BC2B"/>
</linearGradient>
<linearGradient id="paint1_linear_2_415" x1="-27.907" y1="8.68571" x2="43.406" y2="22.8883" gradientUnits="userSpaceOnUse">
<stop stop-color="#61F677"/>
<stop offset="1" stop-color="#10BC2B"/>
</linearGradient>
<linearGradient id="paint2_linear_2_415" x1="61.093" y1="8.68571" x2="132.406" y2="22.8883" gradientUnits="userSpaceOnUse">
<stop stop-color="#61F677"/>
<stop offset="1" stop-color="#10BC2B"/>
</linearGradient>
</defs>
</svg>
